<?xml version="1.0" encoding="UTF-8"?><svg id="uuid-32c80b05-6f1c-4757-8e45-7d9979bacb83" xmlns="http://www.w3.org/2000/svg" xmlns:xlink="http://www.w3.org/1999/xlink" viewBox="0 0 102.23 72.89"><defs><linearGradient id="uuid-e7288be4-a5c8-4db8-9d0c-92cc5582828b" x1="0" y1="38.38" x2="102.23" y2="38.38" gradientUnits="userSpaceOnUse"><stop offset="0" stop-color="#6a5ca5"/><stop offset="1" stop-color="#d45b78"/></linearGradient><linearGradient id="uuid-0b9f3fdf-6cf3-4c01-99ba-50ba2a53d970" x1="41.98" y1="19.94" x2="60.52" y2="19.94" xlink:href="#uuid-e7288be4-a5c8-4db8-9d0c-92cc5582828b"/></defs><polygon points="28.59 3.86 32.59 10.33 16.17 20.18 32.59 30.41 28.73 37.02 21.03 33.21 21.03 44.96 51.47 63.56 81.25 45.44 81.25 33.71 73.59 37.02 69.6 30.46 85.82 20.56 69.55 10.52 73.59 3.86 102.23 20.42 89.58 28.12 89.34 49.77 51.47 72.89 12.94 48.96 12.94 27.98 0 20.28 28.59 3.86" style="fill:url(#uuid-e7288be4-a5c8-4db8-9d0c-92cc5582828b); stroke-width:0px;"/><polygon points="53.49 0 60.52 2.04 49.2 39.89 41.98 37.49 53.49 0" style="fill:url(#uuid-0b9f3fdf-6cf3-4c01-99ba-50ba2a53d970); stroke-width:0px;"/></svg>