<?xml version="1.0" encoding="UTF-8"?>
<svg id="Ebene_2" data-name="Ebene 2" xmlns="http://www.w3.org/2000/svg" xmlns:xlink="http://www.w3.org/1999/xlink" version="1.1" viewBox="0 0 595.28 841.89">
  <defs>
    <style>
      .cls-1 {
        fill: url(#Unbenannter_Verlauf_44-2);
      }

      .cls-1, .cls-2 {
        stroke-width: 0px;
      }

      .cls-2 {
        fill: url(#Unbenannter_Verlauf_44);
      }
    </style>
    <linearGradient id="Unbenannter_Verlauf_44" data-name="Unbenannter Verlauf 44" x1="253.84" y1="421.89" x2="356.07" y2="421.89" gradientUnits="userSpaceOnUse">
      <stop offset="0" stop-color="#6a5ca5"/>
      <stop offset="1" stop-color="#d45b78"/>
    </linearGradient>
    <linearGradient id="Unbenannter_Verlauf_44-2" data-name="Unbenannter Verlauf 44" x1="295.82" y1="403.46" x2="314.37" y2="403.46" xlink:href="#Unbenannter_Verlauf_44"/>
  </defs>
  <polygon class="cls-2" points="282.43 387.37 286.43 393.84 270.02 403.69 286.43 413.92 282.58 420.53 274.87 416.73 274.87 428.48 305.32 447.08 335.09 428.95 335.09 417.23 327.44 420.53 323.44 413.97 339.66 404.07 323.39 394.03 327.44 387.37 356.07 403.93 343.42 411.64 343.18 433.28 305.32 456.4 266.78 432.47 266.78 411.49 253.84 403.79 282.43 387.37"/>
  <polygon class="cls-1" points="307.34 383.51 314.37 385.55 303.04 423.4 295.82 421 307.34 383.51"/>
</svg>