<?xml version="1.0" encoding="UTF-8"?><svg id="uuid-10939567-4723-4cad-8a36-9aabe7e31c90" xmlns="http://www.w3.org/2000/svg" viewBox="0 0 106.9 124.98"><polygon points="28.61 3.86 32.6 10.33 16.19 20.18 32.6 30.41 28.75 37.02 21.04 33.21 21.04 44.96 51.49 63.56 81.27 45.44 81.27 33.71 73.61 37.02 69.61 30.46 85.83 20.56 69.56 10.52 73.61 3.86 102.25 20.42 89.59 28.12 89.35 49.77 51.49 72.89 12.95 48.96 12.95 27.98 .01 20.28 28.61 3.86" style="fill:#fff; stroke-width:0px;"/><polygon points="53.51 0 60.54 2.04 49.21 39.89 41.99 37.49 53.51 0" style="fill:#fff; stroke-width:0px;"/><path d="M2.68,104.28H.03l7.94-22.58h2.65l-7.94,22.58Z" style="fill:#fff; stroke-width:0px;"/><path d="M10.47,104.28h-2.65l7.94-22.58h2.65l-7.94,22.58Z" style="fill:#fff; stroke-width:0px;"/><path d="M36.47,95.73c-.2,2.22-1,3.95-2.38,5.19-1.39,1.24-3.23,1.86-5.53,1.86-1.61,0-3.02-.39-4.25-1.18-1.22-.79-2.17-1.9-2.83-3.35s-1.01-3.13-1.04-5.04v-1.94c0-1.96.34-3.69,1.01-5.18.67-1.5,1.64-2.65,2.9-3.46,1.26-.81,2.72-1.21,4.37-1.21,2.23,0,4.02.62,5.38,1.86s2.15,3,2.37,5.28h-3.49c-.17-1.5-.59-2.57-1.27-3.24-.68-.66-1.68-.99-2.99-.99-1.52,0-2.7.57-3.51,1.72s-1.24,2.83-1.25,5.05v1.84c0,2.25.39,3.96,1.17,5.15.78,1.18,1.92,1.77,3.43,1.77,1.38,0,2.41-.32,3.1-.96.69-.64,1.13-1.7,1.32-3.18h3.49Z" style="fill:#fff; stroke-width:0px;"/><path d="M55.43,97.36l3.1-15.65h3.48l-4.66,20.79h-3.35l-3.84-15.18-3.92,15.18h-3.37l-4.66-20.79h3.48l3.13,15.62,3.85-15.62h2.94l3.81,15.65Z" style="fill:#fff; stroke-width:0px;"/><path d="M71.17,91.56l4.64-9.85h3.88l-6.76,13.14v7.65h-3.52v-7.65l-6.78-13.14h3.89l4.64,9.85Z" style="fill:#fff; stroke-width:0px;"/><path d="M97.28,95.73c-.2,2.22-1,3.95-2.38,5.19-1.39,1.24-3.23,1.86-5.53,1.86-1.61,0-3.02-.39-4.25-1.18-1.22-.79-2.17-1.9-2.83-3.35-.67-1.45-1.01-3.13-1.04-5.04v-1.94c0-1.96.34-3.69,1.01-5.18.67-1.5,1.64-2.65,2.9-3.46,1.26-.81,2.72-1.21,4.37-1.21,2.23,0,4.02.62,5.38,1.86s2.15,3,2.37,5.28h-3.49c-.17-1.5-.59-2.57-1.27-3.24-.68-.66-1.67-.99-2.99-.99-1.53,0-2.7.57-3.51,1.72s-1.24,2.83-1.25,5.05v1.84c0,2.25.39,3.96,1.17,5.15.78,1.18,1.92,1.77,3.43,1.77,1.38,0,2.41-.32,3.1-.96.69-.64,1.13-1.7,1.32-3.18h3.49Z" style="fill:#fff; stroke-width:0px;"/><path d="M102.19,98.84c.63,0,1.11.18,1.46.55.34.37.51.83.51,1.38s-.17.99-.51,1.35c-.34.36-.83.54-1.46.54s-1.08-.18-1.43-.53-.53-.8-.53-1.36.17-1.01.51-1.38c.34-.37.82-.55,1.44-.55Z" style="fill:#fff; stroke-width:0px;"/><path d="M3.34,120.27c.5,0,.91-.17,1.25-.52.34-.35.52-.8.54-1.35h.68c-.02.49-.14.93-.37,1.34-.23.4-.53.72-.9.94s-.78.34-1.21.34c-.85,0-1.51-.37-2.01-1.1-.49-.73-.74-1.71-.74-2.95v-.27c0-.79.11-1.49.33-2.1s.54-1.08.96-1.41.9-.5,1.46-.5c.71,0,1.29.26,1.75.79.46.52.7,1.21.73,2.07h-.68c-.03-.63-.21-1.13-.54-1.52-.33-.38-.75-.58-1.25-.58-.64,0-1.14.29-1.5.87-.36.58-.53,1.39-.53,2.43v.26c0,1.02.18,1.82.53,2.39.35.57.86.86,1.5.86Z" style="fill:#fff; stroke-width:0px;"/><path d="M6.84,116.75c0-.77.12-1.46.36-2.08.24-.62.58-1.1,1.02-1.44.44-.34.94-.51,1.49-.51.86,0,1.55.37,2.08,1.12s.8,1.74.8,2.97v.18c0,.78-.12,1.47-.36,2.09-.24.62-.58,1.1-1.02,1.43s-.93.5-1.49.5c-.85,0-1.55-.37-2.08-1.12-.53-.75-.8-1.74-.8-2.97v-.18ZM7.56,116.99c0,.96.2,1.75.6,2.36.4.62.92.92,1.57.92s1.16-.31,1.56-.92c.4-.61.6-1.43.6-2.43v-.17c0-.61-.09-1.17-.27-1.68s-.44-.9-.77-1.18c-.33-.28-.71-.42-1.13-.42-.63,0-1.15.31-1.55.93-.4.62-.6,1.43-.6,2.43v.16Z" style="fill:#fff; stroke-width:0px;"/><path d="M13.78,116.79c0-1.25.22-2.24.67-2.97s1.05-1.11,1.82-1.11c.87,0,1.53.43,1.99,1.28v-4.5h.71v11.38h-.67l-.03-1.07c-.46.81-1.13,1.21-2.01,1.21-.74,0-1.34-.37-1.79-1.12-.45-.74-.68-1.75-.68-3.01v-.1ZM14.5,116.95c0,1.02.17,1.83.49,2.42.33.59.79.88,1.39.88.88,0,1.5-.48,1.87-1.44v-3.76c-.37-1.04-.99-1.56-1.86-1.56-.6,0-1.07.29-1.4.88-.33.58-.5,1.45-.5,2.59Z" style="fill:#fff; stroke-width:0px;"/><path d="M23.33,121.02c-.55,0-1.04-.17-1.48-.5-.44-.34-.79-.8-1.03-1.4-.25-.6-.37-1.27-.37-2.02v-.32c0-.77.12-1.46.36-2.08.24-.62.57-1.1,1-1.46.43-.35.89-.53,1.39-.53.78,0,1.4.33,1.86,1s.69,1.57.69,2.72v.5h-4.59v.17c0,.91.21,1.67.63,2.27.42.6.95.91,1.58.91.38,0,.72-.09,1.01-.26s.56-.45.79-.83l.45.42c-.52.94-1.28,1.42-2.28,1.42ZM23.2,113.46c-.54,0-.99.24-1.35.73-.37.49-.59,1.15-.67,1.97h3.86v-.1c-.02-.77-.2-1.4-.53-1.88-.33-.48-.77-.73-1.31-.73Z" style="fill:#fff; stroke-width:0px;"/><path d="M31.64,119.03l.11.69.14-.73,1.55-6.13h.61l1.53,6.08.17.84.14-.78,1.32-6.15h.74l-1.88,8.01h-.61l-1.65-6.36-.08-.44-.08.44-1.62,6.35h-.61l-1.87-8.01h.73l1.36,6.17Z" style="fill:#fff; stroke-width:0px;"/><path d="M39.99,114.21c.23-.48.53-.85.9-1.11.36-.26.76-.39,1.2-.39.69,0,1.2.24,1.54.73.34.48.51,1.21.51,2.18v5.26h-.71v-5.27c0-.72-.13-1.25-.37-1.6-.24-.35-.62-.53-1.15-.53-.44,0-.83.17-1.17.51-.34.34-.59.81-.75,1.39v5.49h-.71v-11.38h.71v4.72Z" style="fill:#fff; stroke-width:0px;"/><path d="M50.04,120.87c-.07-.25-.12-.62-.14-1.12-.25.41-.57.72-.96.94-.39.22-.8.33-1.23.33-.62,0-1.12-.21-1.5-.64s-.57-.97-.57-1.63c0-.78.26-1.4.78-1.85.52-.45,1.25-.68,2.18-.68h1.29v-.91c0-.57-.14-1.02-.43-1.35-.28-.33-.7-.49-1.24-.49-.5,0-.91.16-1.23.47-.33.32-.49.7-.49,1.14h-.71c0-.64.24-1.2.71-1.66.48-.47,1.06-.7,1.76-.7s1.28.22,1.7.67c.41.45.63,1.07.64,1.87v3.79c0,.78.07,1.36.2,1.74v.09h-.76ZM47.8,120.23c.48,0,.9-.14,1.28-.43s.65-.67.82-1.15v-1.76h-1.27c-.71,0-1.27.17-1.67.49s-.6.74-.6,1.29c0,.45.13.82.4,1.12.27.3.62.44,1.04.44Z" style="fill:#fff; stroke-width:0px;"/><path d="M53.61,110.8v2.05h1.33v.73h-1.33v5.35c0,.45.06.78.19.99s.34.33.65.33c.12,0,.31-.02.58-.07l.03.72c-.19.08-.44.12-.76.12-.49,0-.84-.18-1.07-.53-.22-.35-.33-.87-.33-1.56v-5.35h-1.18v-.73h1.18v-2.05h.71Z" style="fill:#fff; stroke-width:0px;"/><path d="M61.43,119.6l1.88-6.74h.77l-2.75,9.38-.14.42c-.35.97-.9,1.46-1.64,1.46-.17,0-.35-.03-.55-.1v-.73s.36.04.36.04c.35,0,.63-.11.85-.32s.4-.58.55-1.11l.32-1.08-2.43-7.95h.78l2,6.74Z" style="fill:#fff; stroke-width:0px;"/><path d="M64.78,116.75c0-.77.12-1.46.36-2.08.24-.62.58-1.1,1.02-1.44.44-.34.94-.51,1.49-.51.86,0,1.55.37,2.08,1.12s.8,1.74.8,2.97v.18c0,.78-.12,1.47-.36,2.09-.24.62-.58,1.1-1.01,1.43-.44.34-.93.5-1.49.5-.85,0-1.55-.37-2.08-1.12-.53-.75-.8-1.74-.8-2.97v-.18ZM65.5,116.99c0,.96.2,1.75.6,2.36.4.62.92.92,1.57.92s1.16-.31,1.56-.92c.4-.61.6-1.43.6-2.43v-.17c0-.61-.09-1.17-.27-1.68s-.44-.9-.77-1.18c-.33-.28-.71-.42-1.13-.42-.63,0-1.15.31-1.55.93-.4.62-.6,1.43-.6,2.43v.16Z" style="fill:#fff; stroke-width:0px;"/><path d="M76.15,119.86c-.43.78-1.11,1.16-2.05,1.16-.69,0-1.21-.25-1.56-.74-.36-.5-.54-1.23-.55-2.2v-5.21h.71v5.1c0,1.53.5,2.29,1.49,2.29s1.68-.53,1.96-1.59v-5.8h.71v8.01h-.69v-1.01Z" style="fill:#fff; stroke-width:0px;"/><path d="M84.04,120.27c.5,0,.91-.17,1.25-.52.33-.35.52-.8.54-1.35h.68c-.02.49-.14.93-.37,1.34s-.53.72-.9.94-.78.34-1.21.34c-.84,0-1.51-.37-2.01-1.1-.49-.73-.74-1.71-.74-2.95v-.27c0-.79.11-1.49.33-2.1s.54-1.08.96-1.41c.42-.33.9-.5,1.46-.5.71,0,1.29.26,1.75.79.46.52.7,1.21.73,2.07h-.68c-.03-.63-.21-1.13-.54-1.52-.33-.38-.75-.58-1.25-.58-.64,0-1.14.29-1.5.87-.36.58-.53,1.39-.53,2.43v.26c0,1.02.18,1.82.53,2.39s.86.86,1.5.86Z" style="fill:#fff; stroke-width:0px;"/><path d="M92.01,120.87c-.07-.25-.12-.62-.14-1.12-.25.41-.57.72-.96.94-.39.22-.8.33-1.23.33-.62,0-1.12-.21-1.5-.64s-.57-.97-.57-1.63c0-.78.26-1.4.78-1.85.52-.45,1.25-.68,2.18-.68h1.29v-.91c0-.57-.14-1.02-.42-1.35-.28-.33-.7-.49-1.24-.49-.5,0-.91.16-1.23.47-.33.32-.49.7-.49,1.14h-.71c0-.64.24-1.2.71-1.66.48-.47,1.06-.7,1.76-.7s1.28.22,1.7.67c.41.45.63,1.07.64,1.87v3.79c0,.78.07,1.36.2,1.74v.09h-.76ZM89.77,120.23c.48,0,.9-.14,1.28-.43s.65-.67.82-1.15v-1.76h-1.27c-.71,0-1.27.17-1.67.49-.4.31-.6.74-.6,1.29,0,.45.13.82.4,1.12.27.3.62.44,1.04.44Z" style="fill:#fff; stroke-width:0px;"/><path d="M95.15,112.86l.02,1.37c.24-.49.54-.87.9-1.13.36-.26.76-.39,1.2-.39.69,0,1.2.24,1.54.73.34.48.51,1.21.51,2.18v5.26h-.71v-5.27c0-.72-.13-1.25-.37-1.6-.24-.35-.62-.53-1.15-.53-.44,0-.83.17-1.17.51-.34.34-.59.81-.75,1.39v5.49h-.71v-8.01h.68Z" style="fill:#fff; stroke-width:0px;"/><path d="M102.27,110.8v2.05h1.33v.73h-1.33v5.35c0,.45.06.78.19.99s.34.33.65.33c.12,0,.31-.02.58-.07l.03.72c-.19.08-.44.12-.76.12-.49,0-.84-.18-1.07-.53-.22-.35-.33-.87-.33-1.56v-5.35h-1.19v-.73h1.19v-2.05h.71Z" style="fill:#fff; stroke-width:0px;"/><path d="M105.07,120.35c0-.17.04-.31.13-.43.09-.12.21-.18.36-.18s.27.06.36.18c.09.12.13.26.13.43s-.04.3-.13.41c-.09.11-.21.17-.36.17s-.27-.06-.36-.17c-.09-.11-.13-.25-.13-.41ZM105.85,117.86h-.66l-.04-7.78h.74l-.04,7.78Z" style="fill:#fff; stroke-width:0px;"/></svg>