<?xml version="1.0" encoding="UTF-8"?><svg id="uuid-00512913-3636-4ffd-a0b6-cacb17e5b461" xmlns="http://www.w3.org/2000/svg" viewBox="0 0 249.65 74.17"><polygon points="28.59 5.15 32.59 11.62 16.17 21.46 32.59 31.69 28.73 38.3 21.03 34.5 21.03 46.25 51.47 64.85 81.25 46.72 81.25 35 73.59 38.3 69.6 31.74 85.82 21.84 69.55 11.81 73.59 5.15 102.23 21.7 89.58 29.41 89.34 51.05 51.47 74.17 12.94 50.24 12.94 29.26 0 21.56 28.59 5.15" style="fill:#7c5dd2; stroke-width:0px;"/><polygon points="53.49 1.28 60.52 3.32 49.2 41.17 41.98 38.77 53.49 1.28" style="fill:#7c5dd2; stroke-width:0px;"/><path d="M117.47,32.99h-3.36l10.07-27.79h3.36l-10.07,27.79Z" style="fill:#393e44; stroke-width:0px;"/><path d="M127.35,32.99h-3.36l10.07-27.79h3.36l-10.07,27.79Z" style="fill:#393e44; stroke-width:0px;"/><path d="M160.33,22.46c-.26,2.73-1.27,4.86-3.02,6.39s-4.1,2.29-7.01,2.29c-2.04,0-3.83-.48-5.39-1.45s-2.75-2.34-3.59-4.12-1.28-3.85-1.32-6.21v-2.39c0-2.41.43-4.54,1.28-6.38s2.08-3.26,3.68-4.25,3.45-1.49,5.55-1.49c2.82,0,5.1.76,6.82,2.29s2.72,3.69,3.01,6.5h-4.43c-.21-1.84-.75-3.17-1.61-3.98s-2.12-1.22-3.79-1.22c-1.93,0-3.42.71-4.46,2.12s-1.57,3.49-1.59,6.22v2.27c0,2.77.5,4.88,1.49,6.33.99,1.46,2.44,2.18,4.35,2.18,1.75,0,3.06-.39,3.94-1.18s1.44-2.09,1.67-3.92h4.43Z" style="fill:#393e44; stroke-width:0px;"/><path d="M184.38,24.47l3.94-19.27h4.41l-5.91,25.59h-4.25l-4.87-18.69-4.97,18.69h-4.27l-5.91-25.59h4.41l3.97,19.23,4.89-19.23h3.73l4.83,19.27Z" style="fill:#393e44; stroke-width:0px;"/><path d="M204.33,17.33l5.89-12.13h4.92l-8.58,16.17v9.42h-4.46v-9.42l-8.6-16.17h4.94l5.89,12.13Z" style="fill:#393e44; stroke-width:0px;"/><path d="M237.44,22.46c-.26,2.73-1.27,4.86-3.02,6.39s-4.1,2.29-7.01,2.29c-2.04,0-3.83-.48-5.39-1.45s-2.75-2.34-3.59-4.12-1.28-3.85-1.32-6.21v-2.39c0-2.41.43-4.54,1.28-6.38s2.08-3.26,3.68-4.25,3.45-1.49,5.55-1.49c2.82,0,5.1.76,6.82,2.29s2.72,3.69,3.01,6.5h-4.43c-.21-1.84-.75-3.17-1.61-3.98s-2.12-1.22-3.79-1.22c-1.93,0-3.42.71-4.46,2.12s-1.57,3.49-1.59,6.22v2.27c0,2.77.5,4.88,1.49,6.33.99,1.46,2.44,2.18,4.35,2.18,1.75,0,3.06-.39,3.94-1.18s1.44-2.09,1.67-3.92h4.43Z" style="fill:#393e44; stroke-width:0px;"/><path d="M243.67,26.3c.8,0,1.41.23,1.85.68s.65,1.02.65,1.7-.22,1.22-.65,1.66-1.05.66-1.85.66-1.37-.22-1.81-.65-.67-.99-.67-1.67.22-1.25.65-1.7,1.04-.68,1.83-.68Z" style="fill:#393e44; stroke-width:0px;"/><path d="M118.31,52.68c.63,0,1.16-.21,1.58-.64.43-.43.66-.98.69-1.66h.87c-.02.6-.18,1.15-.47,1.65s-.67.88-1.14,1.16-.98.42-1.53.42c-1.07,0-1.92-.45-2.55-1.35s-.94-2.11-.94-3.63v-.33c0-.97.14-1.83.42-2.58.28-.75.69-1.33,1.21-1.73.53-.41,1.14-.61,1.85-.61.9,0,1.63.32,2.21.97.58.64.89,1.49.93,2.54h-.87c-.04-.77-.27-1.39-.69-1.87-.42-.47-.95-.71-1.59-.71-.82,0-1.45.36-1.9,1.07-.45.71-.68,1.71-.68,2.99v.32c0,1.26.23,2.24.68,2.95s1.09,1.06,1.91,1.06Z" style="fill:#000; stroke-width:0px;"/><path d="M122.76,48.33c0-.95.15-1.8.46-2.56.3-.76.73-1.35,1.29-1.77.56-.42,1.19-.63,1.89-.63,1.09,0,1.97.46,2.64,1.38s1.01,2.14,1.01,3.66v.23c0,.96-.15,1.81-.46,2.58-.3.76-.73,1.35-1.29,1.76s-1.19.62-1.89.62c-1.08,0-1.96-.46-2.64-1.38s-1.02-2.14-1.02-3.66v-.22ZM123.66,48.64c0,1.18.25,2.15.76,2.9.51.76,1.17,1.14,1.99,1.14s1.48-.38,1.98-1.14.76-1.75.76-3v-.21c0-.75-.12-1.44-.35-2.07s-.56-1.11-.97-1.45c-.42-.34-.9-.52-1.43-.52-.8,0-1.46.38-1.97,1.14s-.76,1.76-.76,3v.2Z" style="fill:#000; stroke-width:0px;"/><path d="M131.55,48.39c0-1.53.28-2.75.85-3.66.57-.91,1.33-1.36,2.31-1.36,1.1,0,1.94.53,2.52,1.58v-5.54h.9v14.01h-.85l-.04-1.31c-.58,1-1.43,1.5-2.55,1.5-.94,0-1.7-.46-2.28-1.37-.58-.92-.86-2.15-.86-3.71v-.13ZM132.46,48.58c0,1.26.21,2.25.63,2.98.42.73,1.01,1.09,1.77,1.09,1.11,0,1.9-.59,2.37-1.78v-4.63c-.47-1.28-1.25-1.92-2.35-1.92-.76,0-1.35.36-1.77,1.08s-.63,1.78-.63,3.19Z" style="fill:#000; stroke-width:0px;"/><path d="M143.66,53.6c-.69,0-1.32-.21-1.88-.62s-1-.99-1.31-1.73c-.31-.74-.47-1.57-.47-2.48v-.39c0-.95.15-1.8.46-2.56.3-.76.73-1.36,1.27-1.79s1.13-.65,1.77-.65c.99,0,1.78.41,2.36,1.23.58.82.87,1.94.87,3.35v.61h-5.83v.21c0,1.12.27,2.05.8,2.79s1.2,1.12,2,1.12c.48,0,.91-.11,1.28-.32.37-.21.71-.55,1.01-1.02l.57.52c-.66,1.16-1.63,1.74-2.89,1.74ZM143.5,44.3c-.68,0-1.25.3-1.72.9-.47.6-.75,1.41-.85,2.43h4.9v-.12c-.03-.95-.25-1.72-.67-2.32-.42-.6-.98-.89-1.66-.89Z" style="fill:#000; stroke-width:0px;"/><path d="M154.2,51.14l.14.85.18-.89,1.96-7.55h.77l1.94,7.49.21,1.04.17-.96,1.68-7.57h.94l-2.38,9.87h-.77l-2.1-7.82-.1-.54-.1.55-2.06,7.81h-.77l-2.37-9.87h.93l1.73,7.6Z" style="fill:#000; stroke-width:0px;"/><path d="M164.8,45.22c.3-.59.68-1.04,1.14-1.37s.97-.48,1.52-.48c.88,0,1.53.3,1.96.89.43.6.64,1.49.65,2.68v6.47h-.9v-6.48c0-.88-.16-1.54-.46-1.97s-.79-.65-1.46-.65c-.56,0-1.05.21-1.48.63-.43.42-.75.99-.96,1.71v6.76h-.9v-14.01h.9v5.81Z" style="fill:#000; stroke-width:0px;"/><path d="M177.54,53.41c-.09-.31-.15-.77-.17-1.38-.32.5-.72.88-1.21,1.15s-1.01.41-1.56.41c-.79,0-1.42-.26-1.91-.79-.49-.53-.73-1.2-.73-2.01,0-.96.33-1.72.99-2.28.66-.56,1.58-.84,2.77-.84h1.64v-1.12c0-.71-.18-1.26-.54-1.66-.36-.4-.88-.61-1.57-.61-.63,0-1.15.19-1.56.58-.41.39-.62.86-.62,1.4h-.91c0-.79.3-1.47.91-2.05.6-.57,1.35-.86,2.23-.86s1.63.27,2.16.83c.53.55.8,1.32.81,2.3v4.67c0,.95.08,1.67.25,2.14v.11h-.97ZM174.7,52.63c.6,0,1.14-.18,1.62-.53.48-.35.82-.82,1.04-1.41v-2.17h-1.62c-.9.01-1.61.21-2.11.6-.51.39-.76.92-.76,1.59,0,.55.17,1.01.51,1.38.34.36.78.55,1.32.55Z" style="fill:#000; stroke-width:0px;"/><path d="M182.07,41.02v2.53h1.69v.89h-1.69v6.58c0,.55.08.96.25,1.22.16.27.44.4.82.4.15,0,.39-.03.73-.09l.04.89c-.24.1-.56.15-.97.15-.62,0-1.07-.22-1.35-.65-.28-.43-.42-1.07-.42-1.92v-6.58h-1.5v-.89h1.5v-2.53h.91Z" style="fill:#000; stroke-width:0px;"/><path d="M191.98,51.85l2.38-8.3h.97l-3.49,11.54-.18.51c-.45,1.2-1.14,1.8-2.08,1.8-.22,0-.45-.04-.69-.13v-.9s.46.05.46.05c.44,0,.8-.13,1.08-.4s.51-.72.7-1.36l.4-1.33-3.08-9.78h.99l2.54,8.3Z" style="fill:#000; stroke-width:0px;"/><path d="M196.23,48.33c0-.95.15-1.8.46-2.56s.73-1.35,1.29-1.77c.56-.42,1.19-.63,1.89-.63,1.09,0,1.97.46,2.64,1.38.67.92,1.01,2.14,1.01,3.66v.23c0,.96-.15,1.81-.46,2.58-.3.76-.73,1.35-1.29,1.76s-1.18.62-1.89.62c-1.08,0-1.96-.46-2.64-1.38s-1.01-2.14-1.01-3.66v-.22ZM197.14,48.64c0,1.18.25,2.15.76,2.9s1.17,1.14,1.99,1.14,1.48-.38,1.98-1.14.76-1.75.76-3v-.21c0-.75-.12-1.44-.35-2.07s-.56-1.11-.97-1.45c-.42-.34-.9-.52-1.43-.52-.81,0-1.46.38-1.97,1.14-.51.76-.76,1.76-.76,3v.2Z" style="fill:#000; stroke-width:0px;"/><path d="M210.64,52.17c-.54.95-1.41,1.43-2.6,1.43-.87,0-1.53-.31-1.98-.92-.45-.61-.68-1.51-.69-2.71v-6.42h.9v6.28c0,1.88.63,2.82,1.89,2.82s2.14-.65,2.48-1.96v-7.14h.91v9.87h-.88v-1.25Z" style="fill:#000; stroke-width:0px;"/><path d="M220.66,52.68c.63,0,1.16-.21,1.58-.64.43-.43.66-.98.69-1.66h.87c-.03.6-.18,1.15-.47,1.65s-.67.88-1.14,1.16-.98.42-1.53.42c-1.07,0-1.92-.45-2.55-1.35-.63-.9-.94-2.11-.94-3.63v-.33c0-.97.14-1.83.42-2.58.28-.75.69-1.33,1.21-1.73.53-.41,1.14-.61,1.84-.61.9,0,1.63.32,2.22.97.58.64.89,1.49.93,2.54h-.87c-.04-.77-.27-1.39-.69-1.87-.42-.47-.95-.71-1.59-.71-.81,0-1.45.36-1.9,1.07-.45.71-.68,1.71-.68,2.99v.32c0,1.26.22,2.24.68,2.95.45.71,1.08,1.06,1.91,1.06Z" style="fill:#000; stroke-width:0px;"/><path d="M230.75,53.41c-.09-.31-.15-.77-.17-1.38-.32.5-.72.88-1.21,1.15s-1.01.41-1.56.41c-.79,0-1.42-.26-1.91-.79-.49-.53-.73-1.2-.73-2.01,0-.96.33-1.72.99-2.28.66-.56,1.58-.84,2.77-.84h1.64v-1.12c0-.71-.18-1.26-.54-1.66-.36-.4-.88-.61-1.57-.61-.63,0-1.15.19-1.56.58-.41.39-.62.86-.62,1.4h-.91c0-.79.3-1.47.91-2.05.6-.57,1.35-.86,2.23-.86s1.63.27,2.16.83c.53.55.8,1.32.81,2.3v4.67c0,.95.08,1.67.25,2.14v.11h-.97ZM227.92,52.63c.6,0,1.14-.18,1.62-.53.48-.35.82-.82,1.04-1.41v-2.17h-1.62c-.9.01-1.61.21-2.11.6-.51.39-.76.92-.76,1.59,0,.55.17,1.01.51,1.38.34.36.78.55,1.32.55Z" style="fill:#000; stroke-width:0px;"/><path d="M234.74,43.55l.03,1.69c.31-.61.69-1.07,1.15-1.39s.96-.48,1.52-.48c.88,0,1.53.3,1.96.89.43.6.64,1.49.65,2.68v6.47h-.9v-6.48c0-.88-.16-1.54-.46-1.97s-.79-.65-1.46-.65c-.56,0-1.05.21-1.48.63-.43.42-.75.99-.96,1.71v6.76h-.9v-9.87h.86Z" style="fill:#000; stroke-width:0px;"/><path d="M243.77,41.02v2.53h1.69v.89h-1.69v6.58c0,.55.08.96.25,1.22.16.27.44.4.82.4.15,0,.39-.03.73-.09l.04.89c-.24.1-.56.15-.97.15-.62,0-1.07-.22-1.35-.65-.28-.43-.42-1.07-.42-1.92v-6.58h-1.5v-.89h1.5v-2.53h.91Z" style="fill:#000; stroke-width:0px;"/><path d="M247.31,52.77c0-.21.06-.38.17-.53.11-.14.26-.22.45-.22s.34.07.46.22c.11.14.17.32.17.53s-.06.37-.17.51-.27.21-.46.21-.34-.07-.45-.21c-.11-.14-.17-.31-.17-.51ZM248.3,49.71h-.84l-.04-9.57h.94l-.05,9.57Z" style="fill:#000; stroke-width:0px;"/></svg>